<svg width="167" height="49" viewBox="0 0 167 49" fill="none" xmlns="http://www.w3.org/2000/svg">
<path d="M11.216 38.432C9.752 38.432 8.42 38.144 7.22 37.568C6.044 36.968 5.108 36.056 4.412 34.832C3.716 33.608 3.368 32.048 3.368 30.152C3.368 28.376 3.728 26.84 4.448 25.544C5.168 24.248 6.116 23.252 7.292 22.556C8.468 21.836 9.716 21.476 11.036 21.476C12.596 21.476 13.772 21.74 14.564 22.268C15.38 22.772 16.052 23.336 16.58 23.96L16.364 24.572L16.832 22.268H21.512V38H16.472V34.58L16.868 35.66C16.82 35.66 16.676 35.804 16.436 36.092C16.196 36.356 15.836 36.68 15.356 37.064C14.9 37.424 14.324 37.736 13.628 38C12.956 38.288 12.152 38.432 11.216 38.432ZM12.656 34.328C13.256 34.328 13.796 34.244 14.276 34.076C14.756 33.884 15.176 33.62 15.536 33.284C15.896 32.924 16.208 32.48 16.472 31.952V28.1C16.28 27.572 15.992 27.128 15.608 26.768C15.224 26.384 14.768 26.096 14.24 25.904C13.712 25.688 13.124 25.58 12.476 25.58C11.756 25.58 11.084 25.772 10.46 26.156C9.86 26.516 9.38 27.02 9.02 27.668C8.66 28.316 8.48 29.06 8.48 29.9C8.48 30.74 8.672 31.496 9.056 32.168C9.44 32.84 9.944 33.368 10.568 33.752C11.216 34.136 11.912 34.328 12.656 34.328ZM39.6613 36.596C38.9653 37.148 38.0893 37.592 37.0333 37.928C36.0013 38.264 34.9813 38.432 33.9733 38.432C32.1733 38.432 30.6013 38.108 29.2573 37.46C27.9373 36.788 26.9053 35.84 26.1613 34.616C25.4413 33.368 25.0813 31.868 25.0813 30.116C25.0813 28.364 25.4773 26.876 26.2693 25.652C27.0613 24.404 28.0933 23.456 29.3653 22.808C30.6613 22.16 32.0173 21.836 33.4333 21.836C34.8493 21.836 36.0733 22.028 37.1053 22.412C38.1613 22.796 39.0613 23.3 39.8053 23.924L37.3573 27.164C37.0213 26.9 36.5533 26.636 35.9533 26.372C35.3773 26.084 34.6933 25.94 33.9013 25.94C33.2053 25.94 32.5693 26.12 31.9933 26.48C31.4173 26.84 30.9613 27.332 30.6253 27.956C30.2893 28.58 30.1213 29.3 30.1213 30.116C30.1213 30.884 30.3013 31.592 30.6613 32.24C31.0213 32.888 31.5133 33.404 32.1373 33.788C32.7853 34.148 33.5413 34.328 34.4053 34.328C34.9573 34.328 35.4613 34.256 35.9173 34.112C36.3973 33.944 36.8053 33.716 37.1413 33.428L39.6613 36.596ZM56.4878 36.596C55.7918 37.148 54.9158 37.592 53.8598 37.928C52.8278 38.264 51.8078 38.432 50.7998 38.432C48.9998 38.432 47.4278 38.108 46.0838 37.46C44.7638 36.788 43.7318 35.84 42.9878 34.616C42.2678 33.368 41.9078 31.868 41.9078 30.116C41.9078 28.364 42.3038 26.876 43.0958 25.652C43.8878 24.404 44.9198 23.456 46.1918 22.808C47.4878 22.16 48.8438 21.836 50.2598 21.836C51.6758 21.836 52.8998 22.028 53.9318 22.412C54.9878 22.796 55.8878 23.3 56.6318 23.924L54.1838 27.164C53.8478 26.9 53.3798 26.636 52.7798 26.372C52.2038 26.084 51.5198 25.94 50.7278 25.94C50.0318 25.94 49.3958 26.12 48.8198 26.48C48.2438 26.84 47.7878 27.332 47.4518 27.956C47.1158 28.58 46.9478 29.3 46.9478 30.116C46.9478 30.884 47.1278 31.592 47.4878 32.24C47.8478 32.888 48.3398 33.404 48.9638 33.788C49.6118 34.148 50.3678 34.328 51.2318 34.328C51.7838 34.328 52.2878 34.256 52.7438 34.112C53.2238 33.944 53.6318 33.716 53.9678 33.428L56.4878 36.596ZM67.6984 38.432C65.7784 38.432 64.1464 38.072 62.8024 37.352C61.4824 36.632 60.4744 35.636 59.7784 34.364C59.0824 33.092 58.7344 31.628 58.7344 29.972C58.7344 28.388 59.1424 26.96 59.9584 25.688C60.7744 24.416 61.8664 23.408 63.2344 22.664C64.6024 21.896 66.1264 21.512 67.8064 21.512C70.0624 21.512 71.9104 22.172 73.3504 23.492C74.8144 24.788 75.7624 26.672 76.1944 29.144L63.9544 33.032L62.8384 30.296L71.6944 27.308L70.6504 27.776C70.4584 27.152 70.1104 26.612 69.6064 26.156C69.1264 25.676 68.3944 25.436 67.4104 25.436C66.6664 25.436 66.0064 25.616 65.4304 25.976C64.8784 26.312 64.4464 26.804 64.1344 27.452C63.8464 28.076 63.7024 28.82 63.7024 29.684C63.7024 30.668 63.8824 31.496 64.2424 32.168C64.6024 32.816 65.0944 33.308 65.7184 33.644C66.3424 33.98 67.0384 34.148 67.8064 34.148C68.3584 34.148 68.8864 34.052 69.3904 33.86C69.9184 33.668 70.4344 33.416 70.9384 33.104L73.1704 36.848C72.3304 37.328 71.4184 37.712 70.4344 38C69.4744 38.288 68.5624 38.432 67.6984 38.432ZM84.0288 22.268L84.4248 25.076L84.3528 24.824C84.9048 23.84 85.6848 23.048 86.6928 22.448C87.7008 21.824 88.9368 21.512 90.4008 21.512C91.8888 21.512 93.1248 21.956 94.1088 22.844C95.1168 23.708 95.6328 24.836 95.6568 26.228V38H90.6168V28.1C90.5928 27.404 90.4008 26.852 90.0408 26.444C89.7048 26.012 89.1288 25.796 88.3128 25.796C87.5448 25.796 86.8728 26.048 86.2968 26.552C85.7208 27.056 85.2768 27.74 84.9648 28.604C84.6528 29.468 84.4968 30.464 84.4968 31.592V38H79.4568V22.268H84.0288ZM101.908 15.356H106.948V22.196H110.764V26.12H106.948V38H101.908V26.12H99.4598V22.196H101.908V15.356ZM119.276 38.756C117.86 38.756 116.672 38.324 115.712 37.46C114.752 36.572 114.248 35.432 114.2 34.04V22.268H119.24V32.168C119.288 32.864 119.468 33.428 119.78 33.86C120.092 34.268 120.62 34.472 121.364 34.472C122.108 34.472 122.744 34.22 123.272 33.716C123.824 33.212 124.244 32.528 124.532 31.664C124.844 30.776 125 29.78 125 28.676V22.268H130.04V38H125.468L125.072 35.12L125.144 35.444C124.784 36.092 124.328 36.668 123.776 37.172C123.224 37.676 122.564 38.06 121.796 38.324C121.052 38.612 120.212 38.756 119.276 38.756ZM139.359 22.268L139.827 26.588L139.719 25.94C140.175 25.004 140.799 24.212 141.591 23.564C142.383 22.892 143.163 22.376 143.931 22.016C144.723 21.656 145.323 21.476 145.731 21.476L145.479 26.516C144.303 26.372 143.295 26.564 142.455 27.092C141.615 27.62 140.967 28.316 140.511 29.18C140.055 30.044 139.827 30.932 139.827 31.844V38H134.823V22.268H139.359ZM156.226 38.432C154.306 38.432 152.674 38.072 151.33 37.352C150.01 36.632 149.002 35.636 148.306 34.364C147.61 33.092 147.262 31.628 147.262 29.972C147.262 28.388 147.67 26.96 148.486 25.688C149.302 24.416 150.394 23.408 151.762 22.664C153.13 21.896 154.654 21.512 156.334 21.512C158.59 21.512 160.438 22.172 161.878 23.492C163.342 24.788 164.29 26.672 164.722 29.144L152.482 33.032L151.366 30.296L160.222 27.308L159.178 27.776C158.986 27.152 158.638 26.612 158.134 26.156C157.654 25.676 156.922 25.436 155.938 25.436C155.194 25.436 154.534 25.616 153.958 25.976C153.406 26.312 152.974 26.804 152.662 27.452C152.374 28.076 152.23 28.82 152.23 29.684C152.23 30.668 152.41 31.496 152.77 32.168C153.13 32.816 153.622 33.308 154.246 33.644C154.87 33.98 155.566 34.148 156.334 34.148C156.886 34.148 157.414 34.052 157.918 33.86C158.446 33.668 158.962 33.416 159.466 33.104L161.698 36.848C160.858 37.328 159.946 37.712 158.962 38C158.002 38.288 157.09 38.432 156.226 38.432Z" fill="white"/>
<path d="M97 10.5938L105.758 7.515L97 4.2825V0L112 5.7075V9.25875L97 15V10.5938Z" fill="#A100FF"/>
</svg>
